<svg xmlns="http://www.w3.org/2000/svg" xmlns:xlink="http://www.w3.org/1999/xlink" width="200" zoomAndPan="magnify" viewBox="0 0 375 374.999991" height="500" preserveAspectRatio="xMidYMid meet" version="1.0"><defs><g/><clipPath id="aeaa74e15e"><path d="M 4.539062 161 L 159 161 L 159 186 L 4.539062 186 Z M 4.539062 161 " clip-rule="nonzero"/></clipPath><clipPath id="4b4db82321"><path d="M 163.324219 176.46875 L 180 176.46875 L 180 187.347656 L 163.324219 187.347656 Z M 163.324219 176.46875 " clip-rule="nonzero"/></clipPath><clipPath id="99553c23d0"><path d="M 173 159.597656 L 184 159.597656 L 184 176 L 173 176 Z M 173 159.597656 " clip-rule="nonzero"/></clipPath><clipPath id="47f28e19e2"><path d="M 216 161 L 370.539062 161 L 370.539062 186 L 216 186 Z M 216 161 " clip-rule="nonzero"/></clipPath><clipPath id="7e4b544184"><path d="M 195 176.46875 L 211.597656 176.46875 L 211.597656 187.347656 L 195 187.347656 Z M 195 176.46875 " clip-rule="nonzero"/></clipPath><clipPath id="95e0c077ff"><path d="M 191 159.597656 L 202 159.597656 L 202 176 L 191 176 Z M 191 159.597656 " clip-rule="nonzero"/></clipPath></defs><path fill="#004aad" d="M 117.097656 170.273438 C 116.894531 170.378906 116.804688 170.667969 116.925781 171.296875 C 117.066406 171.910156 117.410156 172.882812 118.289062 174.171875 C 119.171875 175.445312 120.574219 177.09375 122.960938 178.65625 C 124.15625 179.421875 125.59375 180.179688 127.328125 180.71875 C 129.058594 181.273438 131.074219 181.613281 133.300781 181.570312 C 135.527344 181.527344 137.78125 181.074219 139.933594 180.242188 C 141.003906 179.8125 142.050781 179.285156 143.046875 178.65625 C 144.050781 178.027344 144.96875 177.304688 145.835938 176.550781 C 147.570312 175.039062 149.105469 173.402344 150.800781 172.019531 C 151.644531 171.320312 152.539062 170.722656 153.5 170.164062 C 154.46875 169.621094 155.503906 169.167969 156.578125 168.785156 C 158.742188 168.042969 161.105469 167.644531 163.535156 167.71875 C 163.835938 167.734375 164.144531 167.734375 164.449219 167.765625 C 164.753906 167.792969 165.058594 167.824219 165.367188 167.851562 C 165.972656 167.945312 166.589844 168.03125 167.195312 168.179688 C 168.414062 168.464844 169.625 168.859375 170.796875 169.40625 C 173.125 170.503906 175.335938 172.089844 177.160156 174.152344 C 178.980469 176.203125 180.460938 178.695312 181.300781 181.496094 C 180.636719 178.78125 179.382812 176.25 177.726562 174.0625 C 176.890625 172.976562 175.953125 171.972656 174.933594 171.074219 C 173.917969 170.167969 172.820312 169.367188 171.648438 168.699219 C 170.480469 168.027344 169.25 167.472656 167.984375 167.042969 C 166.714844 166.628906 165.410156 166.351562 164.105469 166.183594 C 162.796875 166.011719 161.480469 165.992188 160.183594 166.074219 C 159.53125 166.101562 158.890625 166.191406 158.25 166.277344 C 157.613281 166.394531 156.976562 166.5 156.355469 166.664062 C 155.113281 166.976562 153.894531 167.386719 152.742188 167.925781 C 151.589844 168.453125 150.480469 169.089844 149.464844 169.808594 C 147.441406 171.238281 145.753906 172.851562 144.0625 174.1875 C 142.378906 175.554688 140.683594 176.558594 138.835938 177.234375 C 136.992188 177.890625 135.089844 178.246094 133.234375 178.277344 C 131.371094 178.316406 129.707031 178.050781 128.265625 177.636719 C 126.816406 177.226562 125.585938 176.648438 124.535156 176.0625 C 122.4375 174.875 121.070312 173.625 120.078125 172.683594 C 119.089844 171.730469 118.496094 171.035156 118.035156 170.65625 C 117.597656 170.265625 117.296875 170.167969 117.097656 170.273438 " fill-opacity="1" fill-rule="nonzero"/><g clip-path="url(#aeaa74e15e)"><path fill="#004aad" d="M 4.636719 172.316406 C 4.519531 172.511719 4.8125 172.914062 5.808594 173.671875 C 6.816406 174.410156 8.570312 175.46875 11.519531 176.519531 C 11.890625 176.648438 12.273438 176.800781 12.679688 176.914062 C 13.09375 177.03125 13.519531 177.148438 13.960938 177.273438 C 14.1875 177.335938 14.410156 177.402344 14.644531 177.464844 C 14.878906 177.515625 15.117188 177.570312 15.359375 177.621094 C 15.847656 177.722656 16.359375 177.832031 16.882812 177.945312 C 19 178.308594 21.453125 178.589844 24.257812 178.636719 C 27.0625 178.679688 30.21875 178.496094 33.707031 177.984375 C 37.195312 177.476562 41.019531 176.625 45.136719 175.421875 C 53.394531 173.054688 61.550781 169.734375 70.25 167.199219 C 70.792969 167.042969 71.339844 166.890625 71.886719 166.734375 C 72.433594 166.585938 72.988281 166.441406 73.539062 166.296875 C 74.644531 166.023438 75.757812 165.753906 76.882812 165.503906 C 78.015625 165.28125 79.144531 165.019531 80.296875 164.839844 C 80.871094 164.738281 81.449219 164.636719 82.027344 164.539062 C 82.605469 164.457031 83.1875 164.371094 83.773438 164.289062 C 88.441406 163.625 93.277344 163.34375 98.226562 163.40625 C 108.117188 163.574219 118.5 165.222656 128.828125 168.828125 C 139.144531 172.421875 149.445312 177.953125 158.6875 185.824219 C 150.054688 178.070312 140.199219 172.199219 130.027344 168.179688 C 119.839844 164.148438 109.328125 161.925781 99.097656 161.332031 C 96.539062 161.210938 94 161.128906 91.484375 161.210938 C 90.226562 161.214844 88.972656 161.304688 87.730469 161.363281 C 87.105469 161.394531 86.488281 161.457031 85.867188 161.5 C 85.25 161.554688 84.632812 161.589844 84.019531 161.667969 C 79.113281 162.183594 74.316406 163.054688 69.753906 164.277344 C 65.179688 165.472656 60.816406 166.914062 56.582031 168.316406 C 52.351562 169.722656 48.25 171.105469 44.222656 172.261719 C 40.195312 173.433594 36.542969 174.265625 33.21875 174.796875 C 29.894531 175.328125 26.910156 175.566406 24.261719 175.601562 C 21.613281 175.636719 19.304688 175.476562 17.296875 175.246094 C 16.800781 175.171875 16.320312 175.101562 15.859375 175.03125 C 15.625 174.996094 15.402344 174.964844 15.175781 174.933594 C 14.957031 174.886719 14.742188 174.84375 14.527344 174.800781 C 14.101562 174.714844 13.695312 174.636719 13.304688 174.558594 C 12.910156 174.488281 12.546875 174.371094 12.1875 174.289062 C 9.339844 173.582031 7.539062 172.898438 6.394531 172.53125 C 5.257812 172.148438 4.75 172.117188 4.636719 172.316406 " fill-opacity="1" fill-rule="nonzero"/></g><g clip-path="url(#4b4db82321)"><path fill="#004aad" d="M 163.5 179.117188 C 163.59375 179.328125 163.738281 179.5 163.945312 179.628906 C 164.160156 179.761719 164.429688 179.828125 164.804688 179.871094 C 165.550781 179.953125 166.652344 179.792969 168.507812 179.910156 C 169.433594 179.984375 170.40625 180.09375 171.417969 180.339844 C 172.433594 180.578125 173.492188 180.9375 174.554688 181.464844 C 175.078125 181.742188 175.605469 182.050781 176.121094 182.417969 C 176.632812 182.789062 177.132812 183.210938 177.601562 183.699219 C 178.539062 184.667969 179.34375 185.910156 179.816406 187.390625 C 179.652344 185.914062 179.203125 184.472656 178.5 183.1875 C 177.804688 181.902344 176.886719 180.761719 175.851562 179.816406 C 173.773438 177.921875 171.195312 176.800781 168.738281 176.625 C 167.515625 176.539062 166.511719 176.679688 165.742188 176.886719 C 164.972656 177.113281 164.429688 177.378906 164.074219 177.660156 C 163.707031 177.929688 163.527344 178.210938 163.449219 178.449219 C 163.375 178.691406 163.410156 178.910156 163.5 179.117188 " fill-opacity="1" fill-rule="nonzero"/></g><g clip-path="url(#99553c23d0)"><path fill="#004aad" d="M 173.804688 160.53125 C 173.765625 160.753906 173.78125 160.980469 173.875 161.203125 C 173.96875 161.433594 174.144531 161.640625 174.414062 161.882812 C 174.949219 162.371094 175.902344 162.851562 177.304688 163.941406 C 177.992188 164.5 178.703125 165.105469 179.378906 165.847656 C 180.058594 166.574219 180.710938 167.425781 181.273438 168.414062 C 181.550781 168.910156 181.804688 169.441406 182.023438 170.007812 C 182.234375 170.574219 182.40625 171.179688 182.527344 171.816406 C 182.761719 173.09375 182.753906 174.511719 182.347656 175.949219 C 183.007812 174.6875 183.425781 173.292969 183.554688 171.890625 C 183.699219 170.488281 183.585938 169.085938 183.273438 167.765625 C 182.648438 165.132812 181.210938 162.835938 179.347656 161.363281 C 178.417969 160.625 177.542969 160.191406 176.820312 159.9375 C 176.085938 159.703125 175.507812 159.617188 175.066406 159.648438 C 174.628906 159.671875 174.332031 159.796875 174.136719 159.953125 C 173.941406 160.109375 173.847656 160.308594 173.804688 160.53125 " fill-opacity="1" fill-rule="nonzero"/></g><path fill="#004aad" d="M 257.828125 170.273438 C 258.03125 170.378906 258.117188 170.667969 257.996094 171.296875 C 257.855469 171.910156 257.511719 172.882812 256.632812 174.171875 C 255.75 175.445312 254.351562 177.09375 251.960938 178.65625 C 250.765625 179.421875 249.332031 180.179688 247.597656 180.71875 C 245.863281 181.273438 243.851562 181.613281 241.621094 181.570312 C 239.398438 181.527344 237.140625 181.074219 234.992188 180.242188 C 233.917969 179.8125 232.875 179.285156 231.875 178.65625 C 230.875 178.027344 229.953125 177.304688 229.085938 176.550781 C 227.351562 175.039062 225.816406 173.402344 224.121094 172.019531 C 223.28125 171.320312 222.382812 170.722656 221.421875 170.164062 C 220.453125 169.621094 219.421875 169.167969 218.34375 168.785156 C 216.179688 168.042969 213.816406 167.644531 211.390625 167.71875 C 211.085938 167.734375 210.777344 167.734375 210.476562 167.765625 C 210.167969 167.792969 209.863281 167.824219 209.558594 167.851562 C 208.949219 167.945312 208.332031 168.03125 207.726562 168.179688 C 206.507812 168.464844 205.296875 168.859375 204.125 169.40625 C 201.796875 170.503906 199.585938 172.089844 197.765625 174.152344 C 195.941406 176.203125 194.464844 178.695312 193.621094 181.496094 C 194.285156 178.78125 195.542969 176.25 197.195312 174.0625 C 198.03125 172.976562 198.96875 171.972656 199.988281 171.074219 C 201.003906 170.167969 202.105469 169.367188 203.273438 168.699219 C 204.445312 168.027344 205.671875 167.472656 206.9375 167.042969 C 208.210938 166.628906 209.511719 166.351562 210.816406 166.183594 C 212.125 166.011719 213.441406 165.992188 214.742188 166.074219 C 215.390625 166.101562 216.03125 166.191406 216.675781 166.277344 C 217.308594 166.394531 217.945312 166.5 218.566406 166.664062 C 219.8125 166.976562 221.027344 167.386719 222.179688 167.925781 C 223.332031 168.453125 224.441406 169.089844 225.457031 169.808594 C 227.484375 171.238281 229.167969 172.851562 230.863281 174.1875 C 232.546875 175.554688 234.238281 176.558594 236.089844 177.234375 C 237.929688 177.890625 239.832031 178.246094 241.691406 178.277344 C 243.550781 178.316406 245.214844 178.050781 246.660156 177.636719 C 248.109375 177.226562 249.335938 176.648438 250.386719 176.0625 C 252.488281 174.875 253.851562 173.625 254.84375 172.683594 C 255.832031 171.730469 256.425781 171.035156 256.886719 170.65625 C 257.328125 170.265625 257.628906 170.167969 257.828125 170.273438 " fill-opacity="1" fill-rule="nonzero"/><g clip-path="url(#47f28e19e2)"><path fill="#004aad" d="M 370.289062 172.316406 C 370.402344 172.511719 370.109375 172.914062 369.113281 173.671875 C 368.109375 174.410156 366.355469 175.46875 363.402344 176.519531 C 363.035156 176.648438 362.652344 176.800781 362.242188 176.914062 C 361.832031 177.03125 361.40625 177.148438 360.960938 177.273438 C 360.738281 177.335938 360.511719 177.402344 360.28125 177.464844 C 360.046875 177.515625 359.804688 177.570312 359.5625 177.621094 C 359.074219 177.722656 358.566406 177.832031 358.039062 177.945312 C 355.921875 178.308594 353.472656 178.589844 350.664062 178.636719 C 347.859375 178.679688 344.707031 178.496094 341.21875 177.984375 C 337.730469 177.476562 333.902344 176.625 329.785156 175.421875 C 321.53125 173.054688 313.375 169.734375 304.671875 167.199219 C 304.128906 167.042969 303.585938 166.890625 303.035156 166.734375 C 302.488281 166.585938 301.9375 166.441406 301.386719 166.296875 C 300.28125 166.023438 299.164062 165.753906 298.039062 165.503906 C 296.910156 165.28125 295.78125 165.019531 294.625 164.839844 C 294.050781 164.738281 293.472656 164.636719 292.898438 164.539062 C 292.316406 164.457031 291.734375 164.371094 291.152344 164.289062 C 286.480469 163.625 281.644531 163.34375 276.699219 163.40625 C 266.808594 163.574219 256.425781 165.222656 246.09375 168.828125 C 235.78125 172.421875 225.476562 177.953125 216.234375 185.824219 C 224.867188 178.070312 234.722656 172.199219 244.894531 168.179688 C 255.082031 164.148438 265.59375 161.925781 275.828125 161.332031 C 278.382812 161.210938 280.921875 161.128906 283.441406 161.210938 C 284.699219 161.214844 285.949219 161.304688 287.195312 161.363281 C 287.816406 161.394531 288.433594 161.457031 289.054688 161.5 C 289.671875 161.554688 290.289062 161.589844 290.902344 161.667969 C 295.808594 162.183594 300.605469 163.054688 305.167969 164.277344 C 309.742188 165.472656 314.109375 166.914062 318.339844 168.316406 C 322.574219 169.722656 326.671875 171.105469 330.699219 172.261719 C 334.726562 173.433594 338.378906 174.265625 341.707031 174.796875 C 345.027344 175.328125 348.015625 175.566406 350.664062 175.601562 C 353.3125 175.636719 355.621094 175.476562 357.621094 175.246094 C 358.121094 175.171875 358.601562 175.101562 359.0625 175.03125 C 359.296875 174.996094 359.523438 174.964844 359.746094 174.933594 C 359.964844 174.886719 360.183594 174.84375 360.394531 174.800781 C 360.820312 174.714844 361.226562 174.636719 361.621094 174.558594 C 362.015625 174.488281 362.375 174.371094 362.734375 174.289062 C 365.582031 173.582031 367.386719 172.898438 368.527344 172.53125 C 369.664062 172.148438 370.171875 172.117188 370.289062 172.316406 " fill-opacity="1" fill-rule="nonzero"/></g><g clip-path="url(#7e4b544184)"><path fill="#004aad" d="M 211.421875 179.117188 C 211.328125 179.328125 211.1875 179.5 210.976562 179.628906 C 210.761719 179.761719 210.492188 179.828125 210.117188 179.871094 C 209.371094 179.953125 208.269531 179.792969 206.414062 179.910156 C 205.488281 179.984375 204.519531 180.09375 203.503906 180.339844 C 202.488281 180.578125 201.433594 180.9375 200.371094 181.464844 C 199.84375 181.742188 199.316406 182.050781 198.800781 182.417969 C 198.289062 182.789062 197.789062 183.210938 197.320312 183.699219 C 196.382812 184.667969 195.578125 185.910156 195.105469 187.390625 C 195.269531 185.914062 195.71875 184.472656 196.425781 183.1875 C 197.117188 181.902344 198.035156 180.761719 199.074219 179.816406 C 201.148438 177.921875 203.726562 176.800781 206.183594 176.625 C 207.410156 176.539062 208.414062 176.679688 209.179688 176.886719 C 209.949219 177.113281 210.492188 177.378906 210.847656 177.660156 C 211.214844 177.929688 211.398438 178.210938 211.476562 178.449219 C 211.550781 178.691406 211.515625 178.910156 211.421875 179.117188 " fill-opacity="1" fill-rule="nonzero"/></g><g clip-path="url(#95e0c077ff)"><path fill="#004aad" d="M 201.117188 160.53125 C 201.15625 160.753906 201.144531 160.980469 201.050781 161.203125 C 200.957031 161.433594 200.777344 161.640625 200.507812 161.882812 C 199.972656 162.371094 199.019531 162.851562 197.617188 163.941406 C 196.929688 164.5 196.21875 165.105469 195.542969 165.847656 C 194.863281 166.574219 194.210938 167.425781 193.648438 168.414062 C 193.371094 168.910156 193.117188 169.441406 192.898438 170.007812 C 192.691406 170.574219 192.515625 171.179688 192.394531 171.816406 C 192.160156 173.09375 192.171875 174.511719 192.574219 175.949219 C 191.914062 174.6875 191.5 173.292969 191.367188 171.890625 C 191.222656 170.488281 191.339844 169.085938 191.648438 167.765625 C 192.273438 165.132812 193.710938 162.835938 195.574219 161.363281 C 196.503906 160.625 197.382812 160.191406 198.105469 159.9375 C 198.839844 159.703125 199.414062 159.617188 199.855469 159.648438 C 200.292969 159.671875 200.59375 159.796875 200.785156 159.953125 C 200.980469 160.109375 201.074219 160.308594 201.117188 160.53125 " fill-opacity="1" fill-rule="nonzero"/></g><g fill="#ffffff" fill-opacity="1"><g transform="translate(170.701164, 237.084301)"><g><path d="M 7.234375 0 L 7.234375 -5.546875 C 7.234375 -6.242188 7.070312 -6.765625 6.75 -7.109375 C 6.4375 -7.453125 5.941406 -7.625 5.265625 -7.625 C 4.367188 -7.625 3.710938 -7.378906 3.296875 -6.890625 C 2.878906 -6.410156 2.671875 -5.613281 2.671875 -4.5 L 2.671875 0 L 1.375 0 L 1.375 -8.5625 L 2.4375 -8.5625 L 2.640625 -7.390625 L 2.703125 -7.390625 C 2.972656 -7.816406 3.347656 -8.144531 3.828125 -8.375 C 4.304688 -8.601562 4.835938 -8.71875 5.421875 -8.71875 C 6.453125 -8.71875 7.226562 -8.46875 7.75 -7.96875 C 8.269531 -7.476562 8.53125 -6.6875 8.53125 -5.59375 L 8.53125 0 Z M 6.265625 -9.71875 C 6.046875 -9.71875 5.828125 -9.765625 5.609375 -9.859375 C 5.398438 -9.953125 5.191406 -10.054688 4.984375 -10.171875 C 4.773438 -10.296875 4.578125 -10.40625 4.390625 -10.5 C 4.203125 -10.59375 4.019531 -10.640625 3.84375 -10.640625 C 3.582031 -10.640625 3.382812 -10.5625 3.25 -10.40625 C 3.113281 -10.25 3.007812 -10.015625 2.9375 -9.703125 L 2.171875 -9.703125 C 2.242188 -10.328125 2.425781 -10.816406 2.71875 -11.171875 C 3.019531 -11.535156 3.410156 -11.71875 3.890625 -11.71875 C 4.128906 -11.71875 4.359375 -11.664062 4.578125 -11.5625 C 4.804688 -11.46875 5.019531 -11.363281 5.21875 -11.25 C 5.425781 -11.132812 5.625 -11.023438 5.8125 -10.921875 C 6 -10.828125 6.175781 -10.78125 6.34375 -10.78125 C 6.59375 -10.78125 6.78125 -10.859375 6.90625 -11.015625 C 7.03125 -11.171875 7.132812 -11.410156 7.21875 -11.734375 L 7.984375 -11.734375 C 7.921875 -11.097656 7.738281 -10.601562 7.4375 -10.25 C 7.144531 -9.894531 6.753906 -9.71875 6.265625 -9.71875 Z M 6.265625 -9.71875 "/></g></g></g><g fill="#ffffff" fill-opacity="1"><g transform="translate(180.519085, 237.084301)"><g><path d="M 6.640625 0 L 6.390625 -1.21875 L 6.328125 -1.21875 C 5.898438 -0.6875 5.472656 -0.320312 5.046875 -0.125 C 4.617188 0.0625 4.085938 0.15625 3.453125 0.15625 C 2.609375 0.15625 1.941406 -0.0625 1.453125 -0.5 C 0.972656 -0.9375 0.734375 -1.5625 0.734375 -2.375 C 0.734375 -4.101562 2.117188 -5.007812 4.890625 -5.09375 L 6.34375 -5.140625 L 6.34375 -5.671875 C 6.34375 -6.335938 6.195312 -6.832031 5.90625 -7.15625 C 5.613281 -7.476562 5.148438 -7.640625 4.515625 -7.640625 C 3.804688 -7.640625 3 -7.421875 2.09375 -6.984375 L 1.703125 -7.96875 C 2.117188 -8.195312 2.578125 -8.375 3.078125 -8.5 C 3.585938 -8.632812 4.09375 -8.703125 4.59375 -8.703125 C 5.613281 -8.703125 6.367188 -8.472656 6.859375 -8.015625 C 7.359375 -7.566406 7.609375 -6.84375 7.609375 -5.84375 L 7.609375 0 Z M 3.71875 -0.921875 C 4.519531 -0.921875 5.148438 -1.140625 5.609375 -1.578125 C 6.078125 -2.023438 6.3125 -2.644531 6.3125 -3.4375 L 6.3125 -4.21875 L 5.015625 -4.15625 C 3.984375 -4.125 3.238281 -3.960938 2.78125 -3.671875 C 2.320312 -3.390625 2.09375 -2.953125 2.09375 -2.359375 C 2.09375 -1.890625 2.234375 -1.53125 2.515625 -1.28125 C 2.804688 -1.039062 3.207031 -0.921875 3.71875 -0.921875 Z M 3.71875 -0.921875 "/></g></g></g><g fill="#ffffff" fill-opacity="1"><g transform="translate(189.415355, 237.084301)"><g><path d="M 12.296875 0 L 12.296875 -5.578125 C 12.296875 -6.253906 12.148438 -6.765625 11.859375 -7.109375 C 11.566406 -7.453125 11.113281 -7.625 10.5 -7.625 C 9.6875 -7.625 9.085938 -7.390625 8.703125 -6.921875 C 8.316406 -6.460938 8.125 -5.75 8.125 -4.78125 L 8.125 0 L 6.828125 0 L 6.828125 -5.578125 C 6.828125 -6.253906 6.679688 -6.765625 6.390625 -7.109375 C 6.097656 -7.453125 5.644531 -7.625 5.03125 -7.625 C 4.21875 -7.625 3.617188 -7.378906 3.234375 -6.890625 C 2.859375 -6.398438 2.671875 -5.601562 2.671875 -4.5 L 2.671875 0 L 1.375 0 L 1.375 -8.5625 L 2.4375 -8.5625 L 2.640625 -7.390625 L 2.703125 -7.390625 C 2.953125 -7.804688 3.296875 -8.128906 3.734375 -8.359375 C 4.179688 -8.597656 4.679688 -8.71875 5.234375 -8.71875 C 6.578125 -8.71875 7.453125 -8.234375 7.859375 -7.265625 L 7.921875 -7.265625 C 8.179688 -7.710938 8.550781 -8.066406 9.03125 -8.328125 C 9.519531 -8.585938 10.070312 -8.71875 10.6875 -8.71875 C 11.65625 -8.71875 12.378906 -8.46875 12.859375 -7.96875 C 13.347656 -7.476562 13.59375 -6.6875 13.59375 -5.59375 L 13.59375 0 Z M 12.296875 0 "/></g></g></g></svg>