<svg xmlns="http://www.w3.org/2000/svg" xmlns:xlink="http://www.w3.org/1999/xlink" width="192" zoomAndPan="magnify" viewBox="0 0 144 143.999998" height="192" preserveAspectRatio="xMidYMid meet" version="1.0"><defs><g/><clipPath id="96b8d102c5"><path d="M 113 33 L 144 33 L 144 63 L 113 63 Z M 113 33 " clip-rule="nonzero"/></clipPath><clipPath id="bc33e9bc67"><path d="M 115.183594 30.296875 L 145.996094 36.847656 L 139.289062 68.390625 L 108.476562 61.84375 Z M 115.183594 30.296875 " clip-rule="nonzero"/></clipPath><clipPath id="ca5cdff790"><path d="M 115.183594 30.296875 L 145.996094 36.847656 L 139.289062 68.390625 L 108.476562 61.84375 Z M 115.183594 30.296875 " clip-rule="nonzero"/></clipPath><clipPath id="13592e2f4f"><path d="M 120 41 L 136 41 L 136 56 L 120 56 Z M 120 41 " clip-rule="nonzero"/></clipPath><clipPath id="a2d3c2bac9"><path d="M 121.308594 40.046875 L 135.980469 43.164062 L 132.707031 58.570312 L 118.035156 55.449219 Z M 121.308594 40.046875 " clip-rule="nonzero"/></clipPath><clipPath id="d22740d6a8"><path d="M 121.308594 40.046875 L 135.980469 43.164062 L 132.707031 58.570312 L 118.035156 55.449219 Z M 121.308594 40.046875 " clip-rule="nonzero"/></clipPath></defs><g clip-path="url(#96b8d102c5)"><g clip-path="url(#bc33e9bc67)"><g clip-path="url(#ca5cdff790)"><path fill="#000000" d="M 132.28125 50.695312 C 133.265625 54.167969 134.277344 57.625 135.265625 61.078125 C 135.582031 62.207031 134.304688 62.976562 133.324219 62.234375 C 130.503906 60.140625 127.90625 57.816406 125.441406 55.367188 C 122.441406 57.566406 119.566406 59.890625 116.796875 62.316406 C 115.578125 63.398438 113.585938 61.710938 114.800781 60.625 C 115.539062 58.582031 116.59375 56.601562 117.515625 54.644531 C 118.308594 52.941406 119.121094 51.265625 119.9375 49.566406 C 117.773438 47.128906 115.644531 44.625 113.488281 42.140625 C 112.945312 41.496094 113.539062 40.355469 114.417969 40.390625 C 117.503906 40.539062 120.550781 40.730469 123.621094 40.929688 C 124.703125 38.703125 125.734375 36.464844 126.554688 34.15625 C 126.828125 33.355469 128.207031 33.066406 128.519531 34.09375 C 129.222656 36.496094 129.792969 38.949219 130.28125 41.40625 C 134.269531 41.699219 138.253906 42.011719 142.234375 42.351562 C 143.332031 42.433594 144.214844 43.886719 143.015625 44.519531 C 139.324219 46.394531 135.746094 48.46875 132.28125 50.695312 Z M 132.28125 50.695312 " fill-opacity="1" fill-rule="nonzero"/></g></g></g><g clip-path="url(#13592e2f4f)"><g clip-path="url(#a2d3c2bac9)"><g clip-path="url(#d22740d6a8)"><path fill="#ffd200" d="M 129.664062 50.007812 C 130.140625 51.703125 130.636719 53.390625 131.121094 55.078125 C 131.273438 55.628906 130.648438 56.003906 130.171875 55.644531 C 128.792969 54.621094 127.527344 53.484375 126.320312 52.289062 C 124.855469 53.363281 123.453125 54.5 122.097656 55.683594 C 121.503906 56.210938 120.53125 55.386719 121.125 54.859375 C 121.484375 53.859375 122 52.890625 122.449219 51.9375 C 122.835938 51.105469 123.234375 50.285156 123.632812 49.457031 C 122.574219 48.265625 121.535156 47.042969 120.484375 45.832031 C 120.21875 45.515625 120.507812 44.957031 120.9375 44.972656 C 122.441406 45.046875 123.933594 45.140625 125.433594 45.238281 C 125.960938 44.148438 126.464844 43.058594 126.863281 41.929688 C 126.996094 41.539062 127.671875 41.398438 127.824219 41.898438 C 128.167969 43.074219 128.445312 44.269531 128.683594 45.472656 C 130.632812 45.613281 132.578125 45.765625 134.523438 45.933594 C 135.058594 45.972656 135.488281 46.683594 134.902344 46.992188 C 133.101562 47.90625 131.351562 48.917969 129.664062 50.007812 Z M 129.664062 50.007812 " fill-opacity="1" fill-rule="nonzero"/></g></g></g><path stroke-linecap="butt" transform="matrix(1.023464, 0, 0, 1.023464, -1.864966, 39.343513)" fill="none" stroke-linejoin="miter" d="M 51.916311 15.496007 L 40.546381 15.496007 L 32.145839 54.998785 L 16.879065 54.998785 L 25.279607 15.496007 L 14.047078 15.496007 L 15.325671 10.129736 L 53.122387 10.129736 Z M 51.916311 15.496007 " stroke="#000000" stroke-width="5.300025" stroke-opacity="1" stroke-miterlimit="4"/><g fill="#000000" fill-opacity="1"><g transform="translate(7.234272, 95.634056)"><g><path d="M 44.03125 -40.421875 L 32.390625 -40.421875 L 23.796875 0 L 8.171875 0 L 16.78125 -40.421875 L 5.28125 -40.421875 L 6.578125 -45.921875 L 45.265625 -45.921875 Z M 44.03125 -40.421875 "/></g></g></g><path stroke-linecap="butt" transform="matrix(0.805307, 0, 0, 0.805307, 38.581599, 44.706422)" fill="none" stroke-linejoin="miter" d="M 17.661703 47.047078 C 18.151617 43.947521 18.913167 40.58603 19.946353 36.957754 C 20.964986 33.334329 22.13399 29.798215 23.458213 26.359114 C 24.796989 22.900611 26.155167 19.84956 27.527897 17.201113 C 28.92003 14.542964 30.186046 12.641515 31.321095 11.506466 C 32.131151 10.69641 32.950908 10.216197 33.785218 10.056126 C 34.634079 9.881503 35.32772 10.094931 35.870991 10.691559 C 36.360906 11.181473 36.603437 11.632583 36.603437 12.040036 C 36.603437 12.437788 36.331802 13.2915 35.788531 14.601172 C 35.245259 16.10972 34.789299 16.866419 34.420651 16.866419 C 34.192671 16.866419 33.838575 17.448495 33.348661 18.612648 C 32.873298 19.776801 32.291222 21.329004 31.602431 23.259558 C 30.923342 25.18041 30.239403 27.290436 29.53606 29.594489 C 28.832718 31.898541 28.16333 34.188041 27.527897 36.462989 C 26.907016 38.737938 26.412251 40.780056 26.038752 42.579642 C 25.708908 44.08819 25.41787 45.630692 25.165637 47.207149 C 24.927956 48.778755 24.767885 50.19029 24.690275 51.436904 C 24.612665 52.678666 24.622366 53.54693 24.72908 54.036845 L 24.986164 54.929362 L 26.853659 53.144327 C 28.430115 51.737643 30.283058 49.496649 32.412488 46.411644 C 34.56132 43.312088 36.909028 39.489786 39.465313 34.935039 C 40.163804 33.678724 40.760433 32.563078 41.250347 31.597801 C 41.740261 30.617973 42.196221 29.560534 42.618226 28.420635 C 43.059634 27.285586 43.549549 25.898304 44.087969 24.273341 C 45.877854 19.121965 47.648336 14.596321 49.409117 10.691559 C 51.169898 6.786797 52.760907 3.861863 54.177293 1.911908 C 54.982498 0.830216 55.671288 0.078367 56.243664 -0.329086 C 56.811188 -0.741391 57.480576 -0.998474 58.246976 -1.105188 C 59.280162 -1.211902 60.226036 -0.852955 61.084599 -0.0331976 C 61.962564 0.776859 62.336063 1.664525 62.219647 2.629802 C 62.16629 2.852931 61.841298 3.861863 61.24467 5.646897 C 60.648041 7.431932 59.973803 9.440095 59.221954 11.661686 C 57.975341 15.183248 56.82574 18.559291 55.763451 21.789815 C 54.706012 25.020339 53.687378 28.367278 52.70755 31.835482 C 51.742273 35.303687 50.689685 39.237553 49.549786 43.63223 C 48.890099 46.120606 48.191607 48.371301 47.464012 50.384315 C 46.736417 52.382778 46.047626 53.92528 45.402492 55.006972 C 44.315949 56.636786 43.011128 57.344978 41.488028 57.13155 C 40.401486 56.908421 39.601131 56.36515 39.086963 55.506587 C 38.567945 54.633473 38.339965 53.328652 38.393322 51.592124 C 38.393322 51.000346 38.393322 50.486179 38.393322 50.064173 C 38.393322 49.627616 38.364218 49.385084 38.310861 49.331727 C 38.310861 49.331727 38.092583 49.627616 37.656026 50.224244 C 37.23402 50.820873 36.724703 51.572721 36.128075 52.489492 C 34.87176 54.342435 33.566939 56.030456 32.213612 57.548705 C 30.865135 59.057253 29.647625 60.192302 28.561083 60.944151 C 27.527897 61.715402 26.32979 62.205316 24.966761 62.413893 C 23.618284 62.627321 22.478385 62.549711 21.551913 62.176212 C 20.693351 61.793012 19.883294 61.084819 19.131446 60.051633 C 18.801602 59.561719 18.55422 59.159116 18.394149 58.838974 C 18.224377 58.509131 18.083708 58.048321 17.976994 57.451692 C 17.875131 56.855064 17.739313 55.933443 17.584093 54.69168 C 17.477379 53.498424 17.394918 52.55255 17.341561 51.854058 C 17.278503 51.136164 17.278503 50.427971 17.341561 49.72948 C 17.394918 49.026137 17.501632 48.13362 17.661703 47.047078 Z M 17.661703 47.047078 " stroke="#000000" stroke-width="6.100012" stroke-opacity="1" stroke-miterlimit="4"/><g fill="#000000" fill-opacity="1"><g transform="translate(55.61887, 92.219519)"><g><path d="M -2.8125 -9.625 C -2.425781 -12.113281 -1.816406 -14.820312 -0.984375 -17.75 C -0.148438 -20.675781 0.796875 -23.523438 1.859375 -26.296875 C 2.929688 -29.066406 4.023438 -31.519531 5.140625 -33.65625 C 6.253906 -35.800781 7.269531 -37.332031 8.1875 -38.25 C 8.84375 -38.90625 9.507812 -39.296875 10.1875 -39.421875 C 10.863281 -39.554688 11.421875 -39.382812 11.859375 -38.90625 C 12.242188 -38.507812 12.4375 -38.144531 12.4375 -37.8125 C 12.4375 -37.488281 12.222656 -36.804688 11.796875 -35.765625 C 11.359375 -34.535156 10.984375 -33.921875 10.671875 -33.921875 C 10.503906 -33.921875 10.222656 -33.453125 9.828125 -32.515625 C 9.429688 -31.578125 8.957031 -30.332031 8.40625 -28.78125 C 7.863281 -27.238281 7.304688 -25.535156 6.734375 -23.671875 C 6.171875 -21.816406 5.640625 -19.972656 5.140625 -18.140625 C 4.640625 -16.304688 4.238281 -14.671875 3.9375 -13.234375 C 3.664062 -12.003906 3.429688 -10.753906 3.234375 -9.484375 C 3.046875 -8.222656 2.914062 -7.085938 2.84375 -6.078125 C 2.78125 -5.078125 2.789062 -4.382812 2.875 -4 L 3.078125 -3.28125 L 4.578125 -4.71875 C 5.847656 -5.851562 7.34375 -7.664062 9.0625 -10.15625 C 10.789062 -12.644531 12.679688 -15.722656 14.734375 -19.390625 C 15.304688 -20.390625 15.785156 -21.28125 16.171875 -22.0625 C 16.566406 -22.851562 16.9375 -23.707031 17.28125 -24.625 C 17.632812 -25.539062 18.03125 -26.65625 18.46875 -27.96875 C 19.90625 -32.113281 21.332031 -35.757812 22.75 -38.90625 C 24.175781 -42.050781 25.457031 -44.410156 26.59375 -45.984375 C 27.25 -46.859375 27.804688 -47.457031 28.265625 -47.78125 C 28.722656 -48.113281 29.257812 -48.320312 29.875 -48.40625 C 30.695312 -48.488281 31.457031 -48.203125 32.15625 -47.546875 C 32.851562 -46.898438 33.160156 -46.179688 33.078125 -45.390625 C 33.035156 -45.210938 32.773438 -44.40625 32.296875 -42.96875 C 31.816406 -41.53125 31.269531 -39.914062 30.65625 -38.125 C 29.644531 -35.28125 28.710938 -32.554688 27.859375 -29.953125 C 27.015625 -27.359375 26.195312 -24.664062 25.40625 -21.875 C 24.625 -19.082031 23.773438 -15.914062 22.859375 -12.375 C 22.335938 -10.363281 21.78125 -8.550781 21.1875 -6.9375 C 20.601562 -5.320312 20.046875 -4.078125 19.515625 -3.203125 C 18.640625 -1.898438 17.59375 -1.332031 16.375 -1.5 C 15.5 -1.675781 14.851562 -2.113281 14.4375 -2.8125 C 14.03125 -3.507812 13.847656 -4.554688 13.890625 -5.953125 C 13.890625 -6.441406 13.890625 -6.859375 13.890625 -7.203125 C 13.890625 -7.554688 13.867188 -7.753906 13.828125 -7.796875 C 13.828125 -7.796875 13.648438 -7.554688 13.296875 -7.078125 C 12.941406 -6.597656 12.523438 -5.984375 12.046875 -5.234375 C 11.046875 -3.753906 10 -2.398438 8.90625 -1.171875 C 7.8125 0.046875 6.828125 0.960938 5.953125 1.578125 C 5.128906 2.179688 4.171875 2.570312 3.078125 2.75 C 1.984375 2.925781 1.066406 2.859375 0.328125 2.546875 C -0.367188 2.242188 -1.023438 1.675781 -1.640625 0.84375 C -1.898438 0.457031 -2.09375 0.132812 -2.21875 -0.125 C -2.351562 -0.394531 -2.460938 -0.769531 -2.546875 -1.25 C -2.640625 -1.726562 -2.75 -2.46875 -2.875 -3.46875 C -2.96875 -4.425781 -3.035156 -5.1875 -3.078125 -5.75 C -3.117188 -6.320312 -3.117188 -6.890625 -3.078125 -7.453125 C -3.035156 -8.023438 -2.945312 -8.75 -2.8125 -9.625 Z M -2.8125 -9.625 "/></g></g></g><path stroke-linecap="butt" transform="matrix(0.827261, -0.0288886, 0.0288886, 0.827261, 77.025729, 44.966042)" fill="none" stroke-linejoin="miter" d="M 41.639879 20.2789 L 44.580785 20.438262 C 47.771483 20.611068 50.193657 21.021464 51.847306 21.66945 C 53.500956 22.317435 54.767207 23.376864 55.641343 24.847572 C 56.065498 25.54706 56.302862 26.457234 56.353767 27.56866 C 56.41882 28.68058 56.315244 29.753559 56.038487 30.782714 C 54.633057 35.601924 51.001599 40.343399 45.134848 45.002094 C 43.191072 46.57744 40.92528 48.179317 38.346904 49.808053 C 35.77796 51.437118 33.083985 52.995711 30.264651 54.493263 C 27.44581 55.976666 24.665583 57.300873 21.923968 58.465884 C 19.182353 59.630894 16.676171 60.544421 14.400707 61.2063 C 12.980799 61.572243 11.614311 61.76062 10.287424 61.761503 C 8.965417 61.757835 7.866942 61.573096 6.992162 61.202571 C 5.958081 60.661216 5.284958 59.924701 4.967748 59.002296 C 4.636554 58.07468 4.663952 57.154864 5.045392 56.237968 C 5.431878 55.311805 6.132639 54.58077 7.152722 54.035598 C 7.484066 53.87718 8.316535 53.566273 9.654846 53.103041 C 10.979008 52.639316 12.393272 52.164571 13.902517 51.674256 C 21.50194 49.18676 27.968886 46.54167 33.303026 43.748418 C 38.651314 40.955659 42.70721 38.122492 45.475266 35.253795 C 46.769081 33.901291 47.79599 32.619739 48.551609 31.399542 C 49.316989 30.170242 49.703969 29.22993 49.702951 28.582993 C 49.757973 28.089113 49.499692 27.777892 48.928109 27.649328 C 48.361406 27.516212 47.12188 27.449318 45.214247 27.448808 C 42.341552 27.499593 39.359114 27.853469 36.262544 28.50084 C 33.175407 29.14854 30.60567 29.989019 28.558049 31.022441 C 25.844835 32.320657 23.803068 32.239913 22.442015 30.785255 C 21.737032 30.014575 21.413129 29.148598 21.465756 28.182445 C 21.518876 27.202143 21.902233 26.365586 22.62087 25.663507 C 22.885589 25.384715 23.35168 25.018517 24.028412 24.569958 C 24.715069 24.10758 25.438139 23.684249 26.192904 23.299799 C 28.365121 22.214065 30.616316 20.894994 32.946323 19.347301 C 35.27633 17.799608 37.508779 16.206011 39.657985 14.562288 C 41.798088 12.908803 43.628182 11.343653 45.13379 9.875775 C 46.658262 8.408556 47.692463 7.188643 48.231512 6.220588 L 48.808456 5.249134 L 48.076463 5.251904 C 47.146392 5.247757 45.717546 5.599223 43.785373 6.301421 C 41.867349 7.004113 39.834595 7.882232 37.691498 8.945373 C 35.557998 10.004128 33.707467 11.072764 32.130144 12.160385 C 30.768567 13.019444 29.978917 13.591551 29.766241 13.867439 C 29.553894 14.133894 29.634113 14.405845 30.006899 14.683289 C 30.824801 15.330421 30.473544 15.653411 28.95313 15.652258 C 27.867096 15.652108 27.173447 15.36818 26.867465 14.80031 C 26.575632 14.232933 26.757616 13.483783 27.40382 12.557245 C 27.840087 11.963354 28.602653 11.220312 29.686635 10.332671 C 30.775828 9.431047 32.016762 8.511112 33.418868 7.573195 C 34.835617 6.621624 36.196371 5.786146 37.491533 5.071147 C 43.236158 1.881423 47.580339 0.663771 50.514643 1.417863 C 51.324115 1.630284 52.012105 2.211495 52.583164 3.166375 C 53.149672 4.116374 53.381497 5.049963 53.27864 5.967144 C 53.051665 7.328571 52.125367 9.109437 50.495193 11.304861 C 48.883719 13.50566 46.769532 15.769176 44.162065 18.095739 Z M 41.639879 20.2789 " stroke="#000000" stroke-width="6.100012" stroke-opacity="1" stroke-miterlimit="4"/><g fill="#000000" fill-opacity="1"><g transform="translate(92.793587, 93.283319)"><g><path d="M 19.265625 -32.75 L 21.703125 -32.6875 C 24.347656 -32.65625 26.363281 -32.390625 27.75 -31.890625 C 29.144531 -31.398438 30.222656 -30.5625 30.984375 -29.375 C 31.359375 -28.8125 31.582031 -28.066406 31.65625 -27.140625 C 31.738281 -26.222656 31.679688 -25.332031 31.484375 -24.46875 C 30.453125 -20.4375 27.582031 -16.410156 22.875 -12.390625 C 21.3125 -11.035156 19.484375 -9.644531 17.390625 -8.21875 C 15.304688 -6.800781 13.117188 -5.4375 10.828125 -4.125 C 8.546875 -2.8125 6.285156 -1.628906 4.046875 -0.578125 C 1.816406 0.460938 -0.226562 1.285156 -2.09375 1.890625 C -3.25 2.253906 -4.375 2.453125 -5.46875 2.484375 C -6.570312 2.523438 -7.488281 2.394531 -8.21875 2.09375 C -9.082031 1.675781 -9.664062 1.09375 -9.96875 0.34375 C -10.269531 -0.40625 -10.273438 -1.164062 -9.984375 -1.9375 C -9.691406 -2.71875 -9.125 -3.347656 -8.28125 -3.828125 C -8.03125 -3.972656 -7.359375 -4.253906 -6.265625 -4.671875 C -5.171875 -5.085938 -4.007812 -5.519531 -2.78125 -5.96875 C 3.445312 -8.25 8.722656 -10.617188 13.046875 -13.078125 C 17.378906 -15.546875 20.648438 -18.007812 22.859375 -20.46875 C 23.898438 -21.625 24.71875 -22.71875 25.3125 -23.75 C 25.90625 -24.78125 26.191406 -25.566406 26.171875 -26.109375 C 26.203125 -26.515625 25.976562 -26.765625 25.5 -26.859375 C 25.03125 -26.953125 24.007812 -26.972656 22.4375 -26.921875 C 20.0625 -26.796875 17.601562 -26.414062 15.0625 -25.78125 C 12.53125 -25.15625 10.425781 -24.382812 8.75 -23.46875 C 6.539062 -22.320312 4.859375 -22.332031 3.703125 -23.5 C 3.097656 -24.113281 2.800781 -24.820312 2.8125 -25.625 C 2.820312 -26.4375 3.109375 -27.144531 3.671875 -27.75 C 3.898438 -27.976562 4.285156 -28.289062 4.828125 -28.6875 C 5.378906 -29.09375 5.960938 -29.46875 6.578125 -29.8125 C 8.335938 -30.769531 10.15625 -31.921875 12.03125 -33.265625 C 13.914062 -34.609375 15.71875 -35.992188 17.4375 -37.421875 C 19.164062 -38.847656 20.640625 -40.1875 21.859375 -41.4375 C 23.078125 -42.695312 23.894531 -43.742188 24.3125 -44.578125 L 24.765625 -45.390625 L 24.15625 -45.359375 C 23.394531 -45.335938 22.226562 -45.003906 20.65625 -44.359375 C 19.082031 -43.722656 17.421875 -42.9375 15.671875 -42 C 13.921875 -41.0625 12.414062 -40.125 11.15625 -39.1875 C 10.070312 -38.4375 9.441406 -37.945312 9.265625 -37.71875 C 9.085938 -37.488281 9.160156 -37.265625 9.484375 -37.046875 C 10.179688 -36.535156 9.898438 -36.257812 8.640625 -36.21875 C 7.742188 -36.1875 7.164062 -36.398438 6.90625 -36.859375 C 6.644531 -37.316406 6.769531 -37.929688 7.28125 -38.703125 C 7.613281 -39.210938 8.21875 -39.851562 9.09375 -40.625 C 9.96875 -41.394531 10.96875 -42.191406 12.09375 -43.015625 C 13.226562 -43.847656 14.328125 -44.578125 15.390625 -45.203125 C 20.054688 -48.015625 23.613281 -49.148438 26.0625 -48.609375 C 26.738281 -48.453125 27.320312 -47.988281 27.8125 -47.21875 C 28.3125 -46.445312 28.535156 -45.675781 28.484375 -44.90625 C 28.347656 -43.78125 27.632812 -42.285156 26.34375 -40.421875 C 25.0625 -38.566406 23.375 -36.632812 21.28125 -34.625 Z M 19.265625 -32.75 "/></g></g></g><path stroke-linecap="butt" transform="matrix(0.405546, 0, 0, 0.405546, 81.368735, 46.117478)" fill="none" stroke-linejoin="miter" d="M 76.137833 39.587162 L 81.714811 39.885757 C 87.763762 40.213248 92.358268 40.993447 95.488696 42.226354 C 98.628756 43.449629 101.027146 45.462736 102.683865 48.246409 C 103.483328 49.575637 103.936036 51.29978 104.041989 53.409207 C 104.167206 55.518634 103.964933 57.551005 103.435168 59.506319 C 100.776712 68.637537 93.889769 77.624274 82.764709 86.456898 C 79.07562 89.442845 74.789341 92.486585 69.896241 95.568853 C 65.022404 98.660753 59.917398 101.617803 54.57159 104.449637 C 49.225782 107.262206 43.95703 109.776181 38.755703 111.981929 C 33.564008 114.187677 28.805757 115.921453 24.490582 117.183256 C 21.80323 117.876766 19.202566 118.233154 16.698224 118.233154 C 14.184249 118.233154 12.103718 117.876766 10.446999 117.183256 C 8.491685 116.152623 7.210618 114.75597 6.603796 113.00293 C 5.977711 111.240258 6.035503 109.496851 6.75791 107.763075 C 7.489948 106.010035 8.819176 104.613382 10.745594 103.592381 C 11.381311 103.284154 12.960974 102.696597 15.494213 101.820077 C 17.998555 100.943557 20.685908 100.038141 23.546637 99.103829 C 37.95624 94.393738 50.217887 89.385053 60.331578 84.087405 C 70.464534 78.789757 78.160571 73.424684 83.410059 67.972923 C 85.866241 65.410788 87.811923 62.983502 89.237471 60.671801 C 90.701549 58.340836 91.423955 56.5589 91.423955 55.325993 C 91.529908 54.401312 91.038672 53.804123 89.959878 53.553689 C 88.881084 53.303254 86.530855 53.178037 82.918822 53.178037 C 77.467061 53.28399 71.813026 53.948604 65.937453 55.171879 C 60.090776 56.404786 55.226572 57.994081 51.335209 59.959027 C 46.191674 62.415209 42.319575 62.261095 39.738176 59.506319 C 38.408948 58.051873 37.792494 56.404786 37.888815 54.57469 C 37.994768 52.715697 38.717175 51.126403 40.075299 49.787543 C 40.576167 49.26741 41.471952 48.5739 42.753019 47.716644 C 44.053351 46.840124 45.421107 46.040661 46.856288 45.308622 C 50.969189 43.256988 55.236204 40.752645 59.6477 37.82449 C 64.068828 34.886704 68.306946 31.862229 72.381319 28.751064 C 76.44606 25.611004 79.903979 22.644321 82.764709 19.860648 C 85.654335 17.076975 87.609649 14.765274 88.640282 12.935177 L 89.728708 11.095449 L 88.341687 11.095449 C 86.579015 11.095449 83.872399 11.760063 80.202574 13.089291 C 76.571277 14.418519 72.718442 16.08487 68.653701 18.097976 C 64.608225 20.10145 61.092513 22.133821 58.106566 24.195087 C 55.525167 25.82291 54.032193 26.901704 53.627645 27.431469 C 53.223098 27.932337 53.377211 28.442838 54.080354 28.972602 C 55.640752 30.20551 54.966506 30.821963 52.086512 30.821963 C 50.025245 30.821963 48.705649 30.282566 48.127724 29.19414 C 47.578695 28.115347 47.915818 26.69943 49.148725 24.94639 C 49.977084 23.819436 51.421898 22.413151 53.473532 20.727536 C 55.534799 19.022656 57.89466 17.279249 60.553116 15.497313 C 63.240468 13.68648 65.812236 12.106818 68.268418 10.748694 C 79.162308 4.699743 87.397743 2.397674 92.965089 3.823223 C 94.496591 4.227771 95.806555 5.335461 96.885349 7.136661 C 97.964142 8.947493 98.407218 10.710165 98.204945 12.443941 C 97.771501 15.034972 96.018461 18.406203 92.936193 22.576897 C 89.873189 26.737958 85.866241 31.033869 80.92498 35.445365 Z M 76.137833 39.587162 " stroke="#000000" stroke-width="11.565075" stroke-opacity="1" stroke-miterlimit="4"/><g fill="#004aad" fill-opacity="1"><g transform="translate(93.300645, 91.944124)"><g><path d="M 18.953125 -29.765625 L 21.203125 -29.640625 C 23.660156 -29.515625 25.523438 -29.203125 26.796875 -28.703125 C 28.066406 -28.203125 29.035156 -27.390625 29.703125 -26.265625 C 30.035156 -25.722656 30.222656 -25.023438 30.265625 -24.171875 C 30.304688 -23.316406 30.222656 -22.492188 30.015625 -21.703125 C 28.929688 -17.992188 26.140625 -14.34375 21.640625 -10.75 C 20.140625 -9.539062 18.394531 -8.3125 16.40625 -7.0625 C 14.425781 -5.8125 12.351562 -4.613281 10.1875 -3.46875 C 8.019531 -2.320312 5.882812 -1.300781 3.78125 -0.40625 C 1.675781 0.488281 -0.25 1.1875 -2 1.6875 C -3.082031 1.976562 -4.132812 2.125 -5.15625 2.125 C -6.175781 2.125 -7.019531 1.976562 -7.6875 1.6875 C -8.476562 1.269531 -9 0.707031 -9.25 0 C -9.5 -0.707031 -9.476562 -1.414062 -9.1875 -2.125 C -8.894531 -2.832031 -8.351562 -3.394531 -7.5625 -3.8125 C -7.3125 -3.9375 -6.675781 -4.175781 -5.65625 -4.53125 C -4.632812 -4.882812 -3.539062 -5.25 -2.375 -5.625 C 3.457031 -7.539062 8.425781 -9.570312 12.53125 -11.71875 C 16.644531 -13.863281 19.765625 -16.046875 21.890625 -18.265625 C 22.890625 -19.304688 23.679688 -20.296875 24.265625 -21.234375 C 24.847656 -22.171875 25.140625 -22.890625 25.140625 -23.390625 C 25.179688 -23.765625 24.984375 -24.003906 24.546875 -24.109375 C 24.109375 -24.210938 23.160156 -24.265625 21.703125 -24.265625 C 19.492188 -24.222656 17.195312 -23.953125 14.8125 -23.453125 C 12.4375 -22.953125 10.457031 -22.304688 8.875 -21.515625 C 6.789062 -20.515625 5.226562 -20.578125 4.1875 -21.703125 C 3.644531 -22.285156 3.394531 -22.953125 3.4375 -23.703125 C 3.476562 -24.453125 3.769531 -25.097656 4.3125 -25.640625 C 4.519531 -25.847656 4.882812 -26.128906 5.40625 -26.484375 C 5.925781 -26.835938 6.476562 -27.160156 7.0625 -27.453125 C 8.726562 -28.285156 10.457031 -29.296875 12.25 -30.484375 C 14.039062 -31.671875 15.757812 -32.898438 17.40625 -34.171875 C 19.0625 -35.441406 20.472656 -36.640625 21.640625 -37.765625 C 22.804688 -38.890625 23.597656 -39.828125 24.015625 -40.578125 L 24.453125 -41.328125 L 23.890625 -41.328125 C 23.179688 -41.328125 22.085938 -41.054688 20.609375 -40.515625 C 19.128906 -39.972656 17.5625 -39.296875 15.90625 -38.484375 C 14.257812 -37.671875 12.832031 -36.847656 11.625 -36.015625 C 10.582031 -35.347656 9.976562 -34.910156 9.8125 -34.703125 C 9.644531 -34.492188 9.707031 -34.285156 10 -34.078125 C 10.625 -33.578125 10.351562 -33.328125 9.1875 -33.328125 C 8.351562 -33.328125 7.820312 -33.546875 7.59375 -33.984375 C 7.363281 -34.421875 7.5 -34.992188 8 -35.703125 C 8.332031 -36.160156 8.914062 -36.734375 9.75 -37.421875 C 10.582031 -38.109375 11.539062 -38.816406 12.625 -39.546875 C 13.707031 -40.273438 14.753906 -40.910156 15.765625 -41.453125 C 20.179688 -43.910156 23.515625 -44.847656 25.765625 -44.265625 C 26.390625 -44.097656 26.921875 -43.648438 27.359375 -42.921875 C 27.796875 -42.191406 27.972656 -41.472656 27.890625 -40.765625 C 27.722656 -39.722656 27.015625 -38.359375 25.765625 -36.671875 C 24.515625 -34.984375 22.890625 -33.242188 20.890625 -31.453125 Z M 18.953125 -29.765625 "/></g></g></g><path stroke-linecap="butt" transform="matrix(0.768877, 0, 0, 0.768877, 42.15993, 44.102366)" fill="none" stroke-linejoin="miter" d="M 14.820007 47.049131 C 15.307732 43.950048 16.069801 40.586781 17.101136 36.959329 C 18.122309 33.331878 19.290815 29.800956 20.616816 26.356401 C 21.952978 22.901686 23.309462 19.848327 24.686268 17.201406 C 26.078315 14.544323 27.33827 12.64423 28.476294 11.506206 C 29.284088 10.698412 30.107123 10.215768 30.940319 10.053193 C 31.788756 9.880457 32.48478 10.093837 33.023309 10.688251 C 33.516114 11.181056 33.759976 11.628137 33.759976 12.039654 C 33.759976 12.435931 33.490712 13.289449 32.947102 14.600208 C 32.403493 16.109106 31.946251 16.866095 31.575377 16.866095 C 31.351836 16.866095 30.996204 17.450348 30.503399 18.613775 C 30.025835 19.777201 29.446663 21.326742 28.755719 23.257319 C 28.080018 25.177734 27.394155 27.291207 26.693051 29.592657 C 25.991947 31.894107 25.321326 34.185396 24.686268 36.461444 C 24.066451 38.742572 23.568566 40.779838 23.197692 42.578322 C 22.867462 44.08722 22.572795 45.631681 22.323852 47.206625 C 22.085071 48.781569 21.927576 50.188857 21.846289 51.433571 C 21.765001 52.678285 21.780243 53.547044 21.886932 54.034768 L 22.146036 54.92893 L 24.010566 53.140607 C 25.58551 51.738399 27.439879 49.497914 29.568594 46.408992 C 31.71763 43.31499 34.064804 39.4894 36.620277 34.932224 C 37.321381 33.67735 37.915796 32.564728 38.408601 31.59944 C 38.896325 30.618911 39.353567 29.562174 39.775246 28.42415 C 40.212165 27.281046 40.70497 25.89916 41.24858 24.273411 C 43.031823 19.121821 44.804905 14.595128 46.567826 10.688251 C 48.325666 6.786455 49.915851 3.860108 51.333301 1.91429 C 52.141094 0.827071 52.826957 0.0802427 53.395969 -0.331275 C 53.964981 -0.737712 54.635602 -0.996816 55.402752 -1.103505 C 56.434086 -1.210195 57.384133 -0.854563 58.242731 -0.0315275 C 59.116571 0.776266 59.492526 1.660267 59.375675 2.630635 C 59.31979 2.854176 58.999721 3.860108 58.400226 5.648431 C 57.805812 7.431674 57.13011 9.438457 56.378201 11.6637 C 55.133488 15.184462 53.980222 18.55789 52.923486 21.789065 C 51.861669 25.02024 50.845576 28.368265 49.865047 31.838222 C 48.899759 35.303098 47.843022 39.235377 46.704998 43.629978 C 46.044538 46.119406 45.348514 48.370051 44.622008 50.381915 C 43.895502 52.383618 43.204559 53.922998 42.554259 55.010217 C 41.47212 56.635966 40.166441 57.347231 38.647383 57.133851 C 37.560163 56.910311 36.75745 56.366701 36.244323 55.503022 C 35.726116 54.629183 35.492415 53.328584 35.5483 51.596146 C 35.5483 50.996651 35.5483 50.488605 35.5483 50.066926 C 35.5483 49.630006 35.522897 49.381063 35.467012 49.330259 C 35.467012 49.330259 35.248552 49.630006 34.811632 50.22442 C 34.389954 50.818835 33.881907 51.575824 33.282413 52.485227 C 32.027538 54.339596 30.721859 56.02631 29.370456 57.550449 C 28.024133 59.059347 26.804821 60.19229 25.717602 60.944199 C 24.686268 61.711349 23.487279 62.204154 22.125714 62.417534 C 20.774311 62.625833 19.636287 62.549626 18.711643 62.178752 C 17.847964 61.792637 17.04017 61.086452 16.288261 60.050038 C 15.958031 59.562313 15.709088 59.160956 15.551594 58.840887 C 15.378858 58.510657 15.241686 58.048335 15.134996 57.44884 C 15.028306 56.854426 14.896214 55.934862 14.73872 54.690148 C 14.63203 53.50132 14.550743 52.551273 14.499938 51.850169 C 14.433892 51.138904 14.433892 50.427639 14.499938 49.726535 C 14.550743 49.025431 14.657432 48.131269 14.820007 47.049131 Z M 14.820007 47.049131 " stroke="#000000" stroke-width="6.100012" stroke-opacity="1" stroke-miterlimit="4"/><g fill="#ffd200" fill-opacity="1"><g transform="translate(56.239984, 89.466088)"><g><path d="M -2.6875 -9.1875 C -2.3125 -11.5625 -1.726562 -14.144531 -0.9375 -16.9375 C -0.144531 -19.738281 0.757812 -22.460938 1.78125 -25.109375 C 2.800781 -27.753906 3.84375 -30.097656 4.90625 -32.140625 C 5.96875 -34.179688 6.9375 -35.640625 7.8125 -36.515625 C 8.4375 -37.140625 9.070312 -37.515625 9.71875 -37.640625 C 10.363281 -37.765625 10.894531 -37.597656 11.3125 -37.140625 C 11.6875 -36.765625 11.875 -36.421875 11.875 -36.109375 C 11.875 -35.796875 11.664062 -35.140625 11.25 -34.140625 C 10.832031 -32.972656 10.476562 -32.390625 10.1875 -32.390625 C 10.019531 -32.390625 9.75 -31.941406 9.375 -31.046875 C 9 -30.148438 8.550781 -28.960938 8.03125 -27.484375 C 7.507812 -26.003906 6.976562 -24.378906 6.4375 -22.609375 C 5.894531 -20.835938 5.382812 -19.070312 4.90625 -17.3125 C 4.425781 -15.5625 4.039062 -14 3.75 -12.625 C 3.5 -11.457031 3.28125 -10.269531 3.09375 -9.0625 C 2.90625 -7.851562 2.78125 -6.769531 2.71875 -5.8125 C 2.65625 -4.851562 2.664062 -4.1875 2.75 -3.8125 L 2.9375 -3.125 L 4.375 -4.5 C 5.582031 -5.582031 7.007812 -7.3125 8.65625 -9.6875 C 10.300781 -12.0625 12.101562 -15.003906 14.0625 -18.515625 C 14.601562 -19.472656 15.0625 -20.328125 15.4375 -21.078125 C 15.820312 -21.828125 16.179688 -22.640625 16.515625 -23.515625 C 16.847656 -24.390625 17.222656 -25.453125 17.640625 -26.703125 C 19.015625 -30.660156 20.378906 -34.140625 21.734375 -37.140625 C 23.085938 -40.140625 24.304688 -42.390625 25.390625 -43.890625 C 26.015625 -44.722656 26.546875 -45.296875 26.984375 -45.609375 C 27.421875 -45.921875 27.929688 -46.117188 28.515625 -46.203125 C 29.304688 -46.285156 30.035156 -46.015625 30.703125 -45.390625 C 31.367188 -44.765625 31.660156 -44.078125 31.578125 -43.328125 C 31.535156 -43.160156 31.285156 -42.390625 30.828125 -41.015625 C 30.367188 -39.640625 29.847656 -38.097656 29.265625 -36.390625 C 28.304688 -33.679688 27.421875 -31.085938 26.609375 -28.609375 C 25.796875 -26.128906 25.015625 -23.554688 24.265625 -20.890625 C 23.515625 -18.222656 22.703125 -15.195312 21.828125 -11.8125 C 21.328125 -9.894531 20.796875 -8.164062 20.234375 -6.625 C 19.671875 -5.082031 19.140625 -3.894531 18.640625 -3.0625 C 17.804688 -1.8125 16.800781 -1.269531 15.625 -1.4375 C 14.789062 -1.601562 14.175781 -2.019531 13.78125 -2.6875 C 13.382812 -3.351562 13.207031 -4.351562 13.25 -5.6875 C 13.25 -6.144531 13.25 -6.539062 13.25 -6.875 C 13.25 -7.207031 13.226562 -7.394531 13.1875 -7.4375 C 13.1875 -7.4375 13.019531 -7.207031 12.6875 -6.75 C 12.351562 -6.289062 11.957031 -5.707031 11.5 -5 C 10.539062 -3.582031 9.539062 -2.289062 8.5 -1.125 C 7.457031 0.0390625 6.519531 0.914062 5.6875 1.5 C 4.894531 2.082031 3.976562 2.457031 2.9375 2.625 C 1.894531 2.789062 1.019531 2.726562 0.3125 2.4375 C -0.351562 2.144531 -0.976562 1.601562 -1.5625 0.8125 C -1.8125 0.4375 -2 0.125 -2.125 -0.125 C -2.25 -0.375 -2.351562 -0.726562 -2.4375 -1.1875 C -2.519531 -1.644531 -2.625 -2.351562 -2.75 -3.3125 C -2.832031 -4.226562 -2.894531 -4.957031 -2.9375 -5.5 C -2.976562 -6.039062 -2.976562 -6.582031 -2.9375 -7.125 C -2.894531 -7.664062 -2.8125 -8.351562 -2.6875 -9.1875 Z M -2.6875 -9.1875 "/></g></g></g><path stroke-linecap="butt" transform="matrix(0.980666, 0, 0, 0.980666, 0.754796, 40.691652)" fill="none" stroke-linejoin="miter" d="M 51.837257 15.494637 L 40.469028 15.494637 L 32.06833 55.000623 L 16.800489 55.000623 L 25.201188 15.494637 L 13.972374 15.494637 L 15.247017 10.129184 L 53.044185 10.129184 Z M 51.837257 15.494637 " stroke="#000000" stroke-width="5.300025" stroke-opacity="1" stroke-miterlimit="4"/><g fill="#ffffff" fill-opacity="1"><g transform="translate(9.396917, 94.628295)"><g><path d="M 42.203125 -38.734375 L 31.046875 -38.734375 L 22.796875 0 L 7.828125 0 L 16.078125 -38.734375 L 5.0625 -38.734375 L 6.3125 -44 L 43.375 -44 Z M 42.203125 -38.734375 "/></g></g></g></svg>